<svg xmlns="http://www.w3.org/2000/svg" version="1.1" xmlns:xlink="http://www.w3.org/1999/xlink" xmlns:svgjs="http://svgjs.dev/svgjs" width="128" height="128" viewBox="0 0 128 128"><g transform="matrix(0.8046875,0,0,0.8046875,12.760752631578946,45.87149635320611)"><svg viewBox="0 0 95 34" data-background-color="#2e024e" preserveAspectRatio="xMidYMid meet" height="45" width="128" xmlns="http://www.w3.org/2000/svg" xmlns:xlink="http://www.w3.org/1999/xlink"><g id="tight-bounds" transform="matrix(1,0,0,1,-0.24049999999999727,0.02162845109967293)"><svg viewBox="0 0 95.481 33.956743097800654" height="33.956743097800654" width="95.481"><g><svg viewBox="0 0 95.481 33.956743097800654" height="33.956743097800654" width="95.481"><g><svg viewBox="0 0 95.481 33.956743097800654" height="33.956743097800654" width="95.481"><g><svg viewBox="0 0 95.481 33.956743097800654" height="33.956743097800654" width="95.481"><g id="textblocktransform"><svg viewBox="0 0 95.481 33.956743097800654" height="33.956743097800654" width="95.481" id="textblock"><g><svg viewBox="0 0 95.481 33.956743097800654" height="33.956743097800654" width="95.481"><g transform="matrix(1,0,0,1,0,0)"><svg width="95.481" viewBox="1.55 -37.5 106.85000000000001 38" height="33.956743097800654" data-palette-color="#ad9606"><path d="M21 0.5L19.78 0.5 5.88-37.5 10.68-37.5 22.25-6.23 33.08-37.5 34.13-37.5 21 0.5ZM1.55-37.5L6.38-37.5 6.38-0.98 10.08-0.98 10.08 0 1.8 0 1.8-0.98 5.35-0.98 5.35-36.52 1.55-36.52 1.55-37.5ZM33.85-37.5L42.1-37.5 42.1-36.52 38.6-36.52 38.6-0.98 42.1-0.98 42.1 0 29.83 0 29.83-0.98 33.85-0.98 33.85-37.5ZM45.17-37.5L59.17-37.5Q64.72-37.5 68.76-35.04 72.8-32.58 74.98-28.33 77.17-24.08 77.17-18.75L77.17-18.75Q77.17-14.75 75.87-11.34 74.57-7.93 72.17-5.38 69.77-2.83 66.46-1.41 63.15 0 59.17 0L59.17 0 45.17 0 45.17-0.98 49.67-0.98 49.67-36.52 45.17-36.52 45.17-37.5ZM54.45-36.52L54.45-0.98 59.17-0.98Q62.62-0.98 64.97-2.45 67.32-3.93 68.75-6.45 70.17-8.97 70.8-12.16 71.42-15.35 71.42-18.75L71.42-18.75Q71.42-22.15 70.72-25.34 70.02-28.53 68.55-31.05 67.07-33.58 64.75-35.05 62.42-36.52 59.17-36.52L59.17-36.52 54.45-36.52ZM108.4 0L81.47 0 81.47-0.98 85.97-0.98 85.97-36.52 81.47-36.52 81.47-37.5 95.22-37.5 95.22-36.52 90.75-36.52 90.75-0.98 98.47-0.98Q101.42-0.98 103.2-1.69 104.97-2.4 105.88-3.74 106.8-5.08 107.1-6.98 107.4-8.88 107.4-11.25L107.4-11.25 108.4-11.25 108.4 0Z" opacity="1" transform="matrix(1,0,0,1,0,0)" fill="#ad9606" class="wordmark-text-0" data-fill-palette-color="primary" id="text-0"></path></svg></g></svg></g></svg></g></svg></g><g></g></svg></g></svg></g><defs></defs></svg><rect width="95.481" height="33.956743097800654" fill="none" stroke="none" visibility="hidden"></rect></g></svg></g></svg>